<svg xmlns="http://www.w3.org/2000/svg" style="display: none;">
  <symbol id="calendar" viewBox="0 0 24 24" fill="none">
    <path d="M2 12C2 8.22876 2 6.34315 3.17157 5.17157C4.34315 4 6.22876 4 10 4H14C17.7712 4 19.6569 4 20.8284 5.17157C22 6.34315 22 8.22876 22 12V14C22 17.7712 22 19.6569 20.8284 20.8284C19.6569 22 17.7712 22 14 22H10C6.22876 22 4.34315 22 3.17157 20.8284C2 19.6569 2 17.7712 2 14V12Z" stroke="currentColor" stroke-width="1.5"/>
    <path opacity="0.5" d="M7 4V2.5" stroke="currentColor" stroke-width="1.5" stroke-linecap="round"/>
    <path opacity="0.5" d="M17 4V2.5" stroke="currentColor" stroke-width="1.5" stroke-linecap="round"/>
    <path opacity="0.5" d="M2.5 9H21.5" stroke="currentColor" stroke-width="1.5" stroke-linecap="round"/>
    <path d="M18 17C18 17.5523 17.5523 18 17 18C16.4477 18 16 17.5523 16 17C16 16.4477 16.4477 16 17 16C17.5523 16 18 16.4477 18 17Z" fill="currentColor"/>
    <path d="M18 13C18 13.5523 17.5523 14 17 14C16.4477 14 16 13.5523 16 13C16 12.4477 16.4477 12 17 12C17.5523 12 18 12.4477 18 13Z" fill="currentColor"/>
    <path d="M13 17C13 17.5523 12.5523 18 12 18C11.4477 18 11 17.5523 11 17C11 16.4477 11.4477 16 12 16C12.5523 16 13 16.4477 13 17Z" fill="currentColor"/>
    <path d="M13 13C13 13.5523 12.5523 14 12 14C11.4477 14 11 13.5523 11 13C11 12.4477 11.4477 12 12 12C12.5523 12 13 12.4477 13 13Z" fill="currentColor"/>
    <path d="M8 17C8 17.5523 7.55228 18 7 18C6.44772 18 6 17.5523 6 17C6 16.4477 6.44772 16 7 16C7.55228 16 8 16.4477 8 17Z" fill="currentColor"/>
    <path d="M8 13C8 13.5523 7.55228 14 7 14C6.44772 14 6 13.5523 6 13C6 12.4477 6.44772 12 7 12C7.55228 12 8 12.4477 8 13Z" fill="currentColor"/>
  </symbol>

  <symbol id="download" viewBox="0 0 24 24" fill="none">
    <path opacity="0.5" fill-rule="evenodd" clip-rule="evenodd" d="M3 14.25C3.41421 14.25 3.75 14.5858 3.75 15C3.75 16.4354 3.75159 17.4365 3.85315 18.1919C3.9518 18.9257 4.13225 19.3142 4.40901 19.591C4.68577 19.8678 5.07435 20.0482 5.80812 20.1469C6.56347 20.2484 7.56459 20.25 9 20.25H15C16.4354 20.25 17.4365 20.2484 18.1919 20.1469C18.9257 20.0482 19.3142 19.8678 19.591 19.591C19.8678 19.3142 20.0482 18.9257 20.1469 18.1919C20.2484 17.4365 20.25 16.4354 20.25 15C20.25 14.5858 20.5858 14.25 21 14.25C21.4142 14.25 21.75 14.5858 21.75 15V15.0549C21.75 16.4225 21.75 17.5248 21.6335 18.3918C21.5125 19.2919 21.2536 20.0497 20.6517 20.6516C20.0497 21.2536 19.2919 21.5125 18.3918 21.6335C17.5248 21.75 16.4225 21.75 15.0549 21.75H8.94513C7.57754 21.75 6.47522 21.75 5.60825 21.6335C4.70814 21.5125 3.95027 21.2536 3.34835 20.6517C2.74643 20.0497 2.48754 19.2919 2.36652 18.3918C2.24996 17.5248 2.24998 16.4225 2.25 15.0549C2.25 15.0366 2.25 15.0183 2.25 15C2.25 14.5858 2.58579 14.25 3 14.25Z" fill="currentColor"/>
    <path fill-rule="evenodd" clip-rule="evenodd" d="M12 16.75C12.2106 16.75 12.4114 16.6615 12.5535 16.5061L16.5535 12.1311C16.833 11.8254 16.8118 11.351 16.5061 11.0715C16.2004 10.792 15.726 10.8132 15.4465 11.1189L12.75 14.0682V3C12.75 2.58579 12.4142 2.25 12 2.25C11.5858 2.25 11.25 2.58579 11.25 3V14.0682L8.55353 11.1189C8.27403 10.8132 7.79963 10.792 7.49393 11.0715C7.18823 11.351 7.16698 11.8254 7.44648 12.1311L11.4465 16.5061C11.5886 16.6615 11.7894 16.75 12 16.75Z" fill="currentColor"/>
  </symbol>

  <symbol id="search" viewBox="0 0 16 16" fill="none">
    <path d="M7.66667 14C11.1645 14 14 11.1645 14 7.66671C14 4.1689 11.1645 1.33337 7.66667 1.33337C4.16886 1.33337 1.33333 4.1689 1.33333 7.66671C1.33333 11.1645 4.16886 14 7.66667 14Z" stroke="currentColor" stroke-width="1.5"/>
    <path d="M13.3333 13.3334L14.6667 14.6667" stroke="currentColor" stroke-width="1.5" stroke-linecap="round"/>
  </symbol>
</svg>
